<svg version="1.1" id="Layer_1" xmlns="http://www.w3.org/2000/svg" xmlns:xlink="http://www.w3.org/1999/xlink" x="0px" y="0px"
	 width="100%" viewBox="0 0 714 714" enable-background="new 0 0 714 714" xml:space="preserve">
  <title>Logo Nijigen</title>
  <path fill="#FFFFFF" opacity="1.000000" stroke="none"
	d="
M326.000000,715.000000
	C217.333328,715.000000 109.166664,715.000000 1.000000,715.000000
	C1.000000,477.000000 1.000000,239.000000 1.000000,1.000000
	C239.000000,1.000000 477.000000,1.000000 715.000000,1.000000
	C715.000000,239.000000 715.000000,477.000000 715.000000,715.000000
	C585.500000,715.000000 456.000000,715.000000 326.000000,715.000000
M50.994839,396.500000
	C50.994843,412.666016 50.989914,428.832031 50.996723,444.998047
	C51.000706,454.443359 54.467876,457.934509 63.912704,457.937683
	C98.244659,457.949219 132.576614,457.945343 166.908569,457.932770
	C168.521530,457.932190 170.134430,457.792816 171.888855,457.711517
	C171.994904,456.343903 172.136139,455.371521 172.136307,454.399139
	C172.146500,395.068207 172.159668,335.737244 172.125076,276.406311
	C172.121094,269.566010 169.320694,267.003326 162.189499,267.000732
	C126.690926,266.987976 91.192352,266.991699 55.693783,267.006470
	C54.249710,267.007050 52.805706,267.177277 50.994835,267.291626
	C50.994835,310.237274 50.994835,352.868652 50.994839,396.500000
M216.493408,376.689941
	C207.875793,376.689941 199.258179,376.689941 190.564590,376.689941
	C190.564590,404.066772 190.564590,430.794556 190.564590,457.604553
	C223.586319,457.604553 256.279297,457.604553 289.034210,457.604553
	C289.034210,439.993408 289.034210,422.722595 289.034210,405.054413
	C280.791290,405.054413 272.818146,405.025970 264.845276,405.062927
	C257.857880,405.095337 249.952133,403.180603 244.134354,405.825897
	C237.950836,408.637421 233.728180,415.784668 228.686264,421.073883
	C226.243866,423.636078 223.886063,426.278870 220.799927,429.635773
	C235.328766,429.635773 248.616669,429.576294 261.902374,429.720917
	C263.349731,429.736633 264.784271,430.929688 266.224762,431.576721
	C264.732361,432.172607 263.244507,433.272705 261.746826,433.286194
	C247.257767,433.416473 232.767014,433.377472 218.276855,433.345276
	C216.707352,433.341766 215.138428,433.076019 213.629974,432.937500
	C213.629974,422.078308 213.629974,411.822388 213.629974,400.849426
	C227.229980,400.849426 240.526703,400.849426 254.789505,400.849426
	C250.356812,396.061096 246.687164,392.210632 243.143433,388.247559
	C232.821487,376.704041 232.841217,376.686401 216.493408,376.689941
M517.328186,191.586151
	C498.021881,199.437103 491.567566,221.139832 504.233765,236.441086
	C511.764984,245.539093 519.711426,254.300232 527.678101,263.023865
	C528.942139,264.407959 531.285156,265.482300 533.155945,265.524658
	C543.642517,265.762085 554.140747,265.780212 564.626038,265.515808
	C566.637634,265.465118 569.144043,264.312469 570.509888,262.828522
	C577.942871,254.752518 585.009888,246.341278 592.357361,238.184555
	C600.383240,229.274826 602.365173,219.148911 598.182495,208.093185
	C593.994019,197.022079 583.546387,190.258987 571.840820,189.963699
	C562.787170,189.735306 555.559326,193.701599 549.002930,199.663940
	C540.028870,191.135941 529.902954,187.904587 517.328186,191.586151
M266.553619,342.323853
	C266.553619,344.597260 266.553619,346.870667 266.553619,349.281006
	C274.474152,349.281006 281.698212,349.281006 289.134064,349.281006
	C289.134064,322.384613 289.134064,295.827759 289.134064,269.184509
	C281.554626,269.184509 274.290344,269.184509 266.308533,269.184509
	C266.308533,278.266022 266.308533,287.101532 266.308533,296.868652
	C240.506668,283.254120 215.660446,270.143829 190.244492,256.732910
	C190.244492,265.633881 191.081863,273.568970 190.064423,281.258636
	C188.141281,295.793457 192.608475,307.076141 204.245438,315.879669
	C207.268433,318.166595 209.604202,321.361908 212.255630,324.139984
	C212.650406,323.947327 213.045166,323.754639 213.439941,323.561981
	C213.439941,315.723236 213.439941,307.884460 213.439941,299.300659
	C227.594772,306.775665 240.615311,314.610443 254.428711,320.624023
	C264.362518,324.948700 268.708008,330.815033 266.553619,342.323853
M492.593506,376.844635
	C490.831390,376.844635 489.069244,376.844635 486.922119,376.844635
	C486.922119,386.416565 486.922119,395.324005 486.922119,405.042786
	C461.358917,391.431244 436.436646,378.161011 410.927551,364.578278
	C410.927551,376.397644 411.365570,387.234192 410.778992,398.015015
	C410.363647,405.649506 411.889221,411.692230 417.906525,416.909210
	C423.333588,421.614502 427.912689,427.297852 432.865784,432.549835
	C433.242462,432.390564 433.619141,432.231262 433.995819,432.071960
	C433.995819,424.101807 433.995819,416.131683 433.995819,408.149139
	C434.945953,408.198669 435.322968,408.110443 435.580688,408.247131
	C451.879150,416.891602 468.202789,425.490387 484.392151,434.334991
	C485.709991,435.054932 486.736328,437.436401 486.813995,439.096497
	C487.099304,445.195801 486.927155,451.316498 486.927155,457.562500
	C494.813232,457.562500 502.173920,457.562500 509.437683,457.562500
	C509.437683,430.498047 509.437683,403.812866 509.437683,376.844482
	C503.870453,376.844482 498.720306,376.844482 492.593506,376.844635
M387.999329,445.495453
	C385.504395,442.814819 382.856598,440.258118 380.555664,437.420197
	C378.044403,434.322876 375.132294,433.195740 371.077179,433.269623
	C357.089539,433.524323 343.094330,433.377411 329.102112,433.354919
	C327.358154,433.352112 325.614471,433.178101 323.927063,433.086487
	C323.927063,422.141083 323.927063,411.874878 323.927063,401.017822
	C337.552124,401.017822 350.895721,401.017822 365.199432,401.017822
	C358.691895,394.038391 352.755280,388.016998 347.244049,381.628540
	C344.027008,377.899414 340.486084,376.533234 335.585602,376.734497
	C326.439392,377.110168 317.266815,376.842438 308.105194,376.842438
	C305.691620,376.842438 303.278046,376.842438 300.976929,376.842438
	C300.976929,404.324341 300.976929,431.013092 300.976929,457.548279
	C333.749573,457.548279 366.075378,457.548279 399.216736,457.548279
	C395.254059,453.292755 391.865814,449.654144 387.999329,445.495453
M617.547974,273.108765
	C574.006287,270.745209 530.459778,269.961914 486.763214,271.968658
	C486.763214,274.969269 486.763214,277.226349 486.763214,279.825348
	C488.682190,279.825348 490.312714,279.859863 491.941376,279.819946
	C506.595886,279.460999 521.259521,278.564453 535.902405,278.828552
	C567.705139,279.402191 599.506531,280.337982 631.288513,281.620270
	C641.660400,282.038696 647.601624,288.453186 648.825745,298.760590
	C649.768066,306.695465 650.452148,314.667908 651.008423,322.640594
	C653.391235,356.788086 652.829041,390.876740 649.159302,424.931396
	C647.550781,439.857880 641.761719,445.697510 626.729797,445.944763
	C602.744019,446.339417 578.756470,446.632477 554.768860,446.897217
	C545.319031,447.001526 535.867065,446.914337 526.178711,446.914337
	C526.178711,449.897736 526.178711,451.992249 526.178711,454.752136
	C554.260803,454.752136 582.120422,454.752136 610.475647,454.752136
	C609.895813,457.580780 608.988159,459.717255 609.175598,461.752899
	C609.355469,463.705963 610.670837,465.554535 611.487183,467.449005
	C613.090454,466.196930 616.014099,465.013031 616.082886,463.681702
	C616.531982,454.988892 621.466858,452.615540 629.133972,453.315277
	C630.111267,453.404510 631.118896,453.127747 632.114868,453.051819
	C644.906921,452.076324 654.484863,443.192108 656.061035,430.303070
	C661.546204,385.447113 661.426331,340.573669 655.937439,295.726624
	C654.552246,284.409241 644.501038,275.117340 632.967224,274.117096
	C628.155396,273.699799 623.329163,273.449005 617.547974,273.108765
M367.499969,349.635376
	C389.586487,349.635376 411.672974,349.635376 434.081848,349.635376
	C434.081848,342.272614 433.458771,335.550751 434.236328,328.994965
	C435.255280,320.403656 432.530334,313.967957 426.044922,308.537933
	C420.905518,304.234833 416.133728,299.492676 411.030579,294.790558
	C411.030579,304.629669 411.030579,314.672974 411.030579,325.289062
	C385.469360,325.289062 360.428741,325.289062 335.346985,325.289062
	C335.346985,333.631744 335.346985,341.377625 335.346985,349.634949
	C345.921356,349.634949 356.210632,349.634949 367.499969,349.635376
M610.949707,291.816315
	C569.577942,289.097748 528.201477,289.776306 486.764160,290.783813
	C486.764160,293.579620 486.764160,295.509735 486.764160,297.763702
	C488.683533,297.763702 490.308319,297.788574 491.932190,297.759888
	C509.918823,297.441956 527.914062,296.607544 545.889709,296.916687
	C569.862549,297.329041 593.825012,298.522064 617.780945,299.620483
	C623.896240,299.900879 626.326355,302.439301 627.084229,308.057800
	C631.807983,343.078217 631.841431,378.136810 627.562622,413.190674
	C626.274231,423.745178 624.486206,425.263885 613.888489,425.426453
	C586.237915,425.850616 558.585022,426.125793 530.933105,426.464142
	C524.884216,426.538147 524.346802,427.394073 526.092712,432.763000
	C556.861877,432.763000 587.342102,432.926300 617.818726,432.669403
	C627.739746,432.585785 633.844666,426.311737 634.727234,415.797180
	C636.063599,399.877136 637.840759,383.912476 637.757080,367.975555
	C637.654175,348.362183 636.106384,328.737366 634.647583,309.157410
	C633.801636,297.803009 627.700317,292.619049 616.363586,292.099579
	C614.865662,292.030914 613.367126,291.974426 610.949707,291.816315
M396.115662,429.651672
	C397.287933,428.882568 399.448486,428.149384 399.477966,427.338715
	C399.742523,420.061066 399.632446,412.769775 399.632446,405.054108
	C383.235046,405.054108 367.437897,405.043213 351.640869,405.087524
	C350.877869,405.089661 349.881653,405.355225 349.389221,405.873566
	C342.220490,413.419800 335.119293,421.030121 327.039795,429.651825
	C350.685150,429.651825 372.941254,429.651825 396.115662,429.651672
M468.454529,309.492889
	C468.454529,296.084259 468.454529,282.675598 468.454529,269.309235
	C460.471436,269.309235 453.104553,269.309235 445.384918,269.309235
	C445.384918,279.468689 445.348663,289.246643 445.437103,299.023468
	C445.446655,300.081055 445.909424,301.380310 446.617065,302.147827
	C453.548950,309.666321 460.577515,317.095703 468.453766,325.482300
	C468.453766,319.665131 468.453766,315.076965 468.454529,309.492889
M317.566986,318.930603
	C319.295715,320.856354 321.024414,322.782104 323.473389,325.510254
	C323.473389,305.763794 323.473389,287.478210 323.473389,269.215393
	C315.837158,269.215393 308.592896,269.215393 300.922791,269.215393
	C300.922791,276.445679 301.319275,283.417969 300.814972,290.324432
	C300.274811,297.722229 301.662079,303.813507 307.847321,308.656342
	C311.335510,311.387512 314.038361,315.121735 317.566986,318.930603
M211.391922,327.292542
	C204.688461,320.216553 197.984985,313.140533 191.281509,306.064545
	C190.836365,306.218628 190.391205,306.372711 189.946060,306.526794
	C190.295517,311.693176 188.799149,318.183777 191.364899,321.760162
	C197.370697,330.131653 205.324081,337.105865 212.488907,344.645844
	C212.960403,344.491852 213.431900,344.337860 213.903412,344.183868
	C213.241486,338.730530 212.579559,333.277191 211.391922,327.292542
M468.487701,337.417969
	C468.212372,334.488159 469.029175,330.640350 467.472137,328.787842
	C460.822845,320.876953 453.472534,313.555298 445.736694,305.337494
	C444.893616,314.814972 443.919525,323.087891 452.369110,328.653015
	C453.447723,329.363464 454.187561,330.581543 455.104889,331.544861
	C459.263153,335.911469 463.428772,340.271088 468.486938,345.571259
	C468.486938,342.220184 468.486938,340.265808 468.487701,337.417969
M259.295563,385.205078
	C253.917664,376.958466 246.416962,374.765900 236.736725,377.460724
	C242.588272,383.764954 248.711151,389.469177 253.736572,396.015839
	C259.235168,403.178925 266.070129,400.623138 273.911285,401.013336
	C268.579773,395.236206 264.184052,390.473022 259.295563,385.205078
M420.609192,439.902954
	C424.707001,444.230835 428.804840,448.558716 432.902649,452.886597
	C433.296539,452.643433 433.690460,452.400269 434.084351,452.157104
	C433.733795,447.086304 435.182983,440.738708 432.672546,437.200195
	C426.734741,428.830597 418.915009,421.796112 411.446899,413.782593
	C409.946106,423.487122 410.085419,431.786133 418.400482,437.591949
	C419.067902,438.057983 419.560608,438.774261 420.609192,439.902954
M347.372284,377.220032
	C352.697968,383.116882 358.682983,388.555634 363.179718,395.028381
	C368.602631,402.834381 375.625610,401.173950 383.879608,400.690979
	C378.851929,395.299133 373.956726,390.981293 370.219238,385.824371
	C364.508362,377.944550 357.318237,375.018829 347.372284,377.220032
M434.081848,303.543549
	C433.916718,301.245422 434.648041,298.165710 433.438385,296.778320
	C426.523590,288.847900 419.147034,281.320099 411.748779,273.466003
	C409.507233,283.655945 411.261353,291.873596 419.465942,297.897125
	C419.863251,298.188843 420.176819,298.596375 420.521667,298.957336
	C424.802368,303.438873 429.081696,307.921783 434.081940,313.159058
	C434.081940,309.424530 434.081940,306.941071 434.081848,303.543549
M313.290924,318.214264
	C309.276184,314.390747 305.261475,310.567230 301.324371,306.817688
	C299.700623,315.494415 300.677490,323.327576 308.369812,329.551666
	C313.798645,333.944336 318.529907,339.199188 323.478912,343.978607
	C325.029694,335.390106 324.454559,327.368011 316.521027,321.601379
	C315.467133,320.835327 314.689514,319.689240 313.290924,318.214264
M430.356842,462.195557
	C424.115051,455.570557 417.873260,448.945557 411.421509,442.097717
	C410.879822,446.164459 424.317810,462.255402 434.362335,468.490906
	C433.191498,466.565674 432.020691,464.640411 430.356842,462.195557
M459.009460,347.467377
	C454.751068,342.988861 450.492706,338.510345 446.234314,334.031830
	C445.677094,334.553375 445.119873,335.074951 444.562653,335.596527
	C451.403656,344.756561 459.924713,352.444397 468.053925,360.510010
	C468.012665,354.333221 462.264343,352.198822 459.009460,347.467377
M213.367508,359.160095
	C210.874069,355.977417 208.545670,352.646606 205.850967,349.644562
	C201.049683,344.295807 196.026917,339.145813 191.096786,333.912689
	C190.668671,334.220581 190.240540,334.528473 189.812424,334.836365
	C190.564102,336.303101 191.038284,338.024902 192.113297,339.194427
	C198.272934,345.895721 204.553024,352.487305 210.870636,359.040558
	C211.386444,359.575592 212.488785,359.545166 213.367508,359.160095
M373.819885,376.898376
	C378.630646,385.114685 394.935883,400.802704 399.178223,400.652222
	C391.790588,392.737335 384.721313,385.096191 377.529938,377.571777
	C376.871948,376.883270 375.432648,376.941528 373.819885,376.898376
M422.532898,272.971100
	C426.398499,276.424652 430.264130,279.878204 434.129730,283.331757
	C428.323029,273.280609 419.379364,265.932373 411.365417,257.739166
	C412.384186,264.525269 418.399200,267.624969 422.532898,272.971100
M305.889526,338.599426
	C304.657074,336.918640 303.424652,335.237854 302.192230,333.557068
	C301.252258,338.410370 315.601166,355.147614 324.028442,360.192139
	C319.964050,351.714508 312.296570,346.109711 305.889526,338.599426
M279.604675,394.914764
	C282.371460,397.085876 283.595154,401.628998 289.164307,400.799042
	C281.696655,392.860321 274.701752,385.326965 267.546753,377.948822
	C266.712555,377.088623 264.993225,377.086884 263.684235,376.687134
	C263.592773,377.010895 263.501282,377.334656 263.409821,377.658417
	C268.645691,383.238312 273.881561,388.818176 279.604675,394.914764
z"/>
<path fill="#31C6CF" opacity="1.000000" stroke="none"
	d="
M50.994835,396.000000
	C50.994835,352.868652 50.994835,310.237274 50.994835,267.291626
	C52.805706,267.177277 54.249710,267.007050 55.693783,267.006470
	C91.192352,266.991699 126.690926,266.987976 162.189499,267.000732
	C169.320694,267.003326 172.121094,269.566010 172.125076,276.406311
	C172.159668,335.737244 172.146500,395.068207 172.136307,454.399139
	C172.136139,455.371521 171.994904,456.343903 171.888855,457.711517
	C170.134430,457.792816 168.521530,457.932190 166.908569,457.932770
	C132.576614,457.945343 98.244659,457.949219 63.912704,457.937683
	C54.467876,457.934509 51.000706,454.443359 50.996723,444.998047
	C50.989914,428.832031 50.994843,412.666016 50.994835,396.000000
M115.499977,329.235016
	C130.570770,329.235016 145.641571,329.235016 160.998398,329.235016
	C160.998398,314.602509 161.022125,300.790924 160.988022,286.979492
	C160.971878,280.445251 158.553818,278.095459 151.847870,278.074707
	C140.517075,278.039612 129.186081,278.064972 117.855179,278.064941
	C111.105309,278.064941 104.355431,278.064941 96.322044,278.064941
	C104.212784,286.234314 111.163963,293.541626 118.293427,300.670654
	C119.174858,301.552002 120.996300,301.756012 122.398392,301.804565
	C126.559219,301.948639 130.735901,301.720520 134.888626,301.953796
	C135.958481,302.013916 136.963028,303.236603 137.997574,303.925262
	C137.069244,304.568665 136.216919,305.426697 135.189575,305.790405
	C134.300629,306.105103 133.213058,305.860168 132.213272,305.860168
	C110.717873,305.860443 89.222481,305.860413 67.727081,305.860413
	C65.967667,305.860413 64.208244,305.860382 62.447258,305.860382
	C62.447258,323.304352 62.447258,340.020691 62.447258,356.703491
	C95.415802,356.703491 128.001160,356.703491 160.686218,356.703491
	C160.686218,348.841034 160.686218,341.277527 160.686218,333.443756
	C159.090652,333.367371 157.791000,333.251526 156.491302,333.250885
	C133.996124,333.239563 111.500793,333.271667 89.006088,333.167938
	C87.686180,333.161865 86.371216,332.084686 85.053940,331.505920
	C86.371101,330.749023 87.673607,329.368164 89.007820,329.336823
	C97.501305,329.137299 106.001793,329.235321 115.499977,329.235016
M137.876938,422.174896
	C136.303955,422.450684 134.732452,422.955170 133.157745,422.965363
	C122.333832,423.035492 111.509247,423.002258 100.684875,423.002289
	C95.581474,423.002289 90.478073,423.002289 84.881943,423.002289
	C84.881943,413.325531 84.881943,404.247650 84.881943,395.039093
	C77.125824,395.039093 69.880417,395.039093 62.375404,395.039093
	C62.258396,396.409698 62.080696,397.532837 62.079071,398.656281
	C62.059608,412.145081 62.034138,425.634064 62.080471,439.122711
	C62.101578,445.267242 64.003502,447.122711 70.167496,447.129578
	C89.817879,447.151459 109.528923,446.202972 129.097015,447.472168
	C141.778809,448.294647 150.939575,444.634735 157.781860,434.471466
	C159.334503,432.165192 160.819702,429.240784 160.857849,426.579681
	C161.122818,408.098785 161.003036,389.612305 160.987961,371.127594
	C160.986664,369.545349 160.849472,367.963226 160.780151,366.482361
	C139.307312,366.482361 118.450264,366.482361 96.735535,366.482361
	C104.074699,374.366486 110.766754,381.722931 117.708931,388.835236
	C118.767792,389.920013 120.971367,390.222992 122.667953,390.286469
	C127.616722,390.471588 132.576874,390.352203 138.032913,390.352203
	C138.032913,401.010376 138.032913,411.121613 137.876938,422.174896
M82.116150,371.351013
	C86.311661,375.845490 91.080811,379.938721 94.570076,384.927216
	C99.989632,392.675385 107.215065,390.580414 115.311546,390.425598
	C108.834976,383.501953 102.519295,377.741913 97.434586,371.046997
	C91.902534,363.763000 85.077888,366.787842 77.224976,366.032867
	C79.400154,368.400726 80.513512,369.612732 82.116150,371.351013
M95.353569,280.931976
	C90.303146,275.341766 84.097672,279.222839 78.362297,278.504852
	C83.480408,284.575500 89.325455,289.658478 93.920181,295.693451
	C99.550659,303.088837 106.640594,302.244232 114.996254,301.502228
	C108.245674,294.418823 102.065987,287.934479 95.353569,280.931976
M84.037170,385.462891
	C78.691696,379.777832 73.398033,374.042328 67.957520,368.449738
	C66.854065,367.315491 65.196419,366.720367 63.794262,365.876709
	C63.499695,366.352814 63.205128,366.828918 62.910564,367.305054
	C71.243874,374.829834 77.335503,384.694336 86.798424,391.040131
	C87.225182,390.619110 87.651939,390.198090 88.078697,389.777069
	C86.898170,388.505737 85.717644,387.234375 84.037170,385.462891
M72.467339,289.031738
	C74.921288,291.519226 77.398705,293.984100 79.824257,296.499023
	C84.763809,301.620514 84.752274,301.631622 87.626045,301.121216
	C80.429512,291.385590 66.555138,278.467285 62.434448,278.462921
	C65.883675,282.092834 68.934418,285.303406 72.467339,289.031738
z"/>
<path fill="#8E34F5" opacity="1.000000" stroke="none"
	d="
M216.991425,376.690338
	C232.841217,376.686401 232.821487,376.704041 243.143433,388.247559
	C246.687164,392.210632 250.356812,396.061096 254.789505,400.849426
	C240.526703,400.849426 227.229980,400.849426 213.629974,400.849426
	C213.629974,411.822388 213.629974,422.078308 213.629974,432.937500
	C215.138428,433.076019 216.707352,433.341766 218.276855,433.345276
	C232.767014,433.377472 247.257767,433.416473 261.746826,433.286194
	C263.244507,433.272705 264.732361,432.172607 266.224762,431.576691
	C264.784271,430.929688 263.349731,429.736633 261.902374,429.720917
	C248.616669,429.576294 235.328766,429.635773 220.799927,429.635773
	C223.886063,426.278870 226.243866,423.636078 228.686264,421.073883
	C233.728180,415.784668 237.950836,408.637421 244.134354,405.825897
	C249.952133,403.180603 257.857880,405.095337 264.845276,405.062927
	C272.818146,405.025970 280.791290,405.054413 289.034210,405.054413
	C289.034210,422.722595 289.034210,439.993408 289.034210,457.604553
	C256.279297,457.604553 223.586319,457.604553 190.564590,457.604553
	C190.564590,430.794556 190.564590,404.066772 190.564590,376.689941
	C199.258179,376.689941 207.875793,376.689941 216.991425,376.690338
z"/>
<path fill="#F22DB3" opacity="1.000000" stroke="none"
	d="
M517.700562,191.431732
	C529.902954,187.904587 540.028870,191.135941 549.002930,199.663940
	C555.559326,193.701599 562.787170,189.735306 571.840820,189.963699
	C583.546387,190.258987 593.994019,197.022079 598.182495,208.093185
	C602.365173,219.148911 600.383240,229.274826 592.357361,238.184555
	C585.009888,246.341278 577.942871,254.752518 570.509888,262.828522
	C569.144043,264.312469 566.637634,265.465118 564.626038,265.515808
	C554.140747,265.780212 543.642517,265.762085 533.155945,265.524658
	C531.285156,265.482300 528.942139,264.407959 527.678101,263.023865
	C519.711426,254.300232 511.764984,245.539093 504.233765,236.441086
	C491.567566,221.139832 498.021881,199.437103 517.700562,191.431732
z"/>
<path fill="#FE9B24" opacity="1.000000" stroke="none"
	d="
M266.554016,341.845581
	C268.708008,330.815033 264.362518,324.948700 254.428711,320.624023
	C240.615311,314.610443 227.594772,306.775665 213.439941,299.300659
	C213.439941,307.884460 213.439941,315.723236 213.439941,323.561981
	C213.045166,323.754639 212.650406,323.947327 212.255630,324.139984
	C209.604202,321.361908 207.268433,318.166595 204.245438,315.879669
	C192.608475,307.076141 188.141281,295.793457 190.064423,281.258636
	C191.081863,273.568970 190.244492,265.633881 190.244492,256.732910
	C215.660446,270.143829 240.506668,283.254120 266.308533,296.868652
	C266.308533,287.101532 266.308533,278.266022 266.308533,269.184509
	C274.290344,269.184509 281.554626,269.184509 289.134064,269.184509
	C289.134064,295.827759 289.134064,322.384613 289.134064,349.281006
	C281.698212,349.281006 274.474152,349.281006 266.553619,349.281006
	C266.553619,346.870667 266.553619,344.597260 266.554016,341.845581
z"/>
<path fill="#8D32F5" opacity="1.000000" stroke="none"
	d="
M493.081848,376.844543
	C498.720306,376.844482 503.870453,376.844482 509.437683,376.844482
	C509.437683,403.812866 509.437683,430.498047 509.437683,457.562500
	C502.173920,457.562500 494.813232,457.562500 486.927155,457.562500
	C486.927155,451.316498 487.099304,445.195801 486.813995,439.096497
	C486.736328,437.436401 485.709991,435.054932 484.392151,434.334991
	C468.202789,425.490387 451.879150,416.891602 435.580688,408.247131
	C435.322968,408.110443 434.945953,408.198669 433.995819,408.149139
	C433.995819,416.131683 433.995819,424.101807 433.995819,432.071960
	C433.619141,432.231262 433.242462,432.390564 432.865784,432.549835
	C427.912689,427.297852 423.333588,421.614502 417.906525,416.909210
	C411.889221,411.692230 410.363647,405.649506 410.778992,398.015015
	C411.365570,387.234192 410.927551,376.397644 410.927551,364.578278
	C436.436646,378.161011 461.358917,391.431244 486.922119,405.042786
	C486.922119,395.324005 486.922119,386.416565 486.922119,376.844635
	C489.069244,376.844635 490.831390,376.844635 493.081848,376.844543
z"/>
<path fill="#8E33F5" opacity="1.000000" stroke="none"
	d="
M388.238464,445.755493
	C391.865814,449.654144 395.254059,453.292755 399.216736,457.548279
	C366.075378,457.548279 333.749573,457.548279 300.976929,457.548279
	C300.976929,431.013092 300.976929,404.324341 300.976929,376.842438
	C303.278046,376.842438 305.691620,376.842438 308.105194,376.842438
	C317.266815,376.842438 326.439392,377.110168 335.585602,376.734497
	C340.486084,376.533234 344.027008,377.899414 347.244049,381.628540
	C352.755280,388.016998 358.691895,394.038391 365.199432,401.017822
	C350.895721,401.017822 337.552124,401.017822 323.927063,401.017822
	C323.927063,411.874878 323.927063,422.141083 323.927063,433.086487
	C325.614471,433.178101 327.358154,433.352112 329.102112,433.354919
	C343.094330,433.377411 357.089539,433.524323 371.077179,433.269623
	C375.132294,433.195740 378.044403,434.322876 380.555664,437.420197
	C382.856598,440.258118 385.504395,442.814819 388.238464,445.755493
z"/>
<path fill="#37C8D0" opacity="1.000000" stroke="none"
	d="
M618.028687,273.115631
	C623.329163,273.449005 628.155396,273.699799 632.967224,274.117096
	C644.501038,275.117340 654.552246,284.409241 655.937439,295.726624
	C661.426331,340.573669 661.546204,385.447113 656.061035,430.303070
	C654.484863,443.192108 644.906921,452.076324 632.114868,453.051819
	C631.118896,453.127747 630.111267,453.404510 629.133972,453.315277
	C621.466858,452.615540 616.531982,454.988892 616.082886,463.681702
	C616.014099,465.013031 613.090454,466.196930 611.487183,467.449005
	C610.670837,465.554535 609.355469,463.705963 609.175598,461.752899
	C608.988159,459.717255 609.895813,457.580780 610.475647,454.752136
	C582.120422,454.752136 554.260803,454.752136 526.178711,454.752136
	C526.178711,451.992249 526.178711,449.897736 526.178711,446.914337
	C535.867065,446.914337 545.319031,447.001526 554.768860,446.897217
	C578.756470,446.632477 602.744019,446.339417 626.729797,445.944763
	C641.761719,445.697510 647.550781,439.857880 649.159302,424.931396
	C652.829041,390.876740 653.391235,356.788086 651.008423,322.640594
	C650.452148,314.667908 649.768066,306.695465 648.825745,298.760590
	C647.601624,288.453186 641.660400,282.038696 631.288513,281.620270
	C599.506531,280.337982 567.705139,279.402191 535.902405,278.828552
	C521.259521,278.564453 506.595886,279.460999 491.941376,279.819946
	C490.312714,279.859863 488.682190,279.825348 486.763214,279.825348
	C486.763214,277.226349 486.763214,274.969269 486.763214,271.968658
	C530.459778,269.961914 574.006287,270.745209 618.028687,273.115631
z"/>
<path fill="#FE9D28" opacity="1.000000" stroke="none"
	d="
M366.999939,349.635162
	C356.210632,349.634949 345.921356,349.634949 335.346985,349.634949
	C335.346985,341.377625 335.346985,333.631744 335.346985,325.289062
	C360.428741,325.289062 385.469360,325.289062 411.030579,325.289062
	C411.030579,314.672974 411.030579,304.629669 411.030579,294.790558
	C416.133728,299.492676 420.905518,304.234833 426.044922,308.537933
	C432.530334,313.967957 435.255280,320.403656 434.236328,328.994965
	C433.458771,335.550751 434.081848,342.272614 434.081848,349.635376
	C411.672974,349.635376 389.586487,349.635376 366.999939,349.635162
z"/>
<path fill="#37C7D0" opacity="1.000000" stroke="none"
	d="
M611.409302,291.864319
	C613.367126,291.974426 614.865662,292.030914 616.363586,292.099579
	C627.700317,292.619049 633.801636,297.803009 634.647583,309.157410
	C636.106384,328.737366 637.654175,348.362183 637.757080,367.975555
	C637.840759,383.912476 636.063599,399.877136 634.727234,415.797180
	C633.844666,426.311737 627.739746,432.585785 617.818726,432.669403
	C587.342102,432.926300 556.861877,432.763000 526.092712,432.763000
	C524.346802,427.394073 524.884216,426.538147 530.933105,426.464142
	C558.585022,426.125793 586.237915,425.850616 613.888489,425.426453
	C624.486206,425.263885 626.274231,423.745178 627.562622,413.190674
	C631.841431,378.136810 631.807983,343.078217 627.084229,308.057800
	C626.326355,302.439301 623.896240,299.900879 617.780945,299.620483
	C593.825012,298.522064 569.862549,297.329041 545.889709,296.916687
	C527.914062,296.607544 509.918823,297.441956 491.932190,297.759888
	C490.308319,297.788574 488.683533,297.763702 486.764160,297.763702
	C486.764160,295.509735 486.764160,293.579620 486.764160,290.783813
	C528.201477,289.776306 569.577942,289.097748 611.409302,291.864319
z"/>
<path fill="#9038F5" opacity="1.000000" stroke="none"
	d="
M395.656525,429.651733
	C372.941254,429.651825 350.685150,429.651825 327.039795,429.651825
	C335.119293,421.030121 342.220490,413.419800 349.389221,405.873566
	C349.881653,405.355225 350.877869,405.089661 351.640869,405.087524
	C367.437897,405.043213 383.235046,405.054108 399.632446,405.054108
	C399.632446,412.769775 399.742523,420.061066 399.477966,427.338715
	C399.448486,428.149384 397.287933,428.882568 395.656525,429.651733
z"/>
<path fill="#FE9C26" opacity="1.000000" stroke="none"
	d="
M468.454163,309.990845
	C468.453766,315.076965 468.453766,319.665131 468.453766,325.482300
	C460.577515,317.095703 453.548950,309.666321 446.617065,302.147827
	C445.909424,301.380310 445.446655,300.081055 445.437103,299.023468
	C445.348663,289.246643 445.384918,279.468689 445.384918,269.309235
	C453.104553,269.309235 460.471436,269.309235 468.454529,269.309235
	C468.454529,282.675598 468.454529,296.084259 468.454163,309.990845
z"/>
<path fill="#FE9C26" opacity="1.000000" stroke="none"
	d="
M317.330994,318.667358
	C314.038361,315.121735 311.335510,311.387512 307.847321,308.656342
	C301.662079,303.813507 300.274811,297.722229 300.814972,290.324432
	C301.319275,283.417969 300.922791,276.445679 300.922791,269.215393
	C308.592896,269.215393 315.837158,269.215393 323.473389,269.215393
	C323.473389,287.478210 323.473389,305.763794 323.473389,325.510254
	C321.024414,322.782104 319.295715,320.856354 317.330994,318.667358
z"/>
<path fill="#FE9F2D" opacity="1.000000" stroke="none"
	d="
M211.654785,327.558197
	C212.579559,333.277191 213.241486,338.730530 213.903412,344.183868
	C213.431900,344.337860 212.960403,344.491852 212.488907,344.645844
	C205.324081,337.105865 197.370697,330.131653 191.364899,321.760162
	C188.799149,318.183777 190.295517,311.693176 189.946060,306.526794
	C190.391205,306.372711 190.836365,306.218628 191.281509,306.064545
	C197.984985,313.140533 204.688461,320.216553 211.654785,327.558197
z"/>
<path fill="#FE9F2D" opacity="1.000000" stroke="none"
	d="
M468.487305,337.864685
	C468.486938,340.265808 468.486938,342.220184 468.486938,345.571259
	C463.428772,340.271088 459.263153,335.911469 455.104889,331.544861
	C454.187561,330.581543 453.447723,329.363464 452.369110,328.653015
	C443.919525,323.087891 444.893616,314.814972 445.736694,305.337494
	C453.472534,313.555298 460.822845,320.876953 467.472137,328.787842
	C469.029175,330.640350 468.212372,334.488159 468.487305,337.864685
z"/>
<path fill="#9036F5" opacity="1.000000" stroke="none"
	d="
M259.541931,385.457458
	C264.184052,390.473022 268.579773,395.236206 273.911285,401.013336
	C266.070129,400.623138 259.235168,403.178925 253.736572,396.015839
	C248.711151,389.469177 242.588272,383.764954 236.736725,377.460724
	C246.416962,374.765900 253.917664,376.958466 259.541931,385.457458
z"/>
<path fill="#9038F5" opacity="1.000000" stroke="none"
	d="
M420.371826,439.638611
	C419.560608,438.774261 419.067902,438.057983 418.400482,437.591949
	C410.085419,431.786133 409.946106,423.487122 411.446899,413.782593
	C418.915009,421.796112 426.734741,428.830597 432.672546,437.200195
	C435.182983,440.738708 433.733795,447.086304 434.084351,452.157104
	C433.690460,452.400269 433.296539,452.643433 432.902649,452.886597
	C428.804840,448.558716 424.707001,444.230835 420.371826,439.638611
z"/>
<path fill="#9036F5" opacity="1.000000" stroke="none"
	d="
M347.663452,377.006622
	C357.318237,375.018829 364.508362,377.944550 370.219238,385.824371
	C373.956726,390.981293 378.851929,395.299133 383.879608,400.690979
	C375.625610,401.173950 368.602631,402.834381 363.179718,395.028381
	C358.682983,388.555634 352.697968,383.116882 347.663452,377.006622
z"/>
<path fill="#FE9D28" opacity="1.000000" stroke="none"
	d="
M434.081909,304.000610
	C434.081940,306.941071 434.081940,309.424530 434.081940,313.159058
	C429.081696,307.921783 424.802368,303.438873 420.521667,298.957336
	C420.176819,298.596375 419.863251,298.188843 419.465942,297.897125
	C411.261353,291.873596 409.507233,283.655945 411.748779,273.466003
	C419.147034,281.320099 426.523590,288.847900 433.438385,296.778320
	C434.648041,298.165710 433.916718,301.245422 434.081909,304.000610
z"/>
<path fill="#FE9D28" opacity="1.000000" stroke="none"
	d="
M313.537415,318.466705
	C314.689514,319.689240 315.467133,320.835327 316.521027,321.601379
	C324.454559,327.368011 325.029694,335.390106 323.478912,343.978607
	C318.529907,339.199188 313.798645,333.944336 308.369812,329.551666
	C300.677490,323.327576 299.700623,315.494415 301.324371,306.817688
	C305.261475,310.567230 309.276184,314.390747 313.537415,318.466705
z"/>
<path fill="#9846F6" opacity="1.000000" stroke="none"
	d="
M430.603333,462.455353
	C432.020691,464.640411 433.191498,466.565674 434.362335,468.490906
	C424.317810,462.255402 410.879822,446.164459 411.421509,442.097717
	C417.873260,448.945557 424.115051,455.570557 430.603333,462.455353
z"/>
<path fill="#FEA53A" opacity="1.000000" stroke="none"
	d="
M459.246857,347.728210
	C462.264343,352.198822 468.012665,354.333221 468.053925,360.510010
	C459.924713,352.444397 451.403656,344.756561 444.562653,335.596527
	C445.119873,335.074951 445.677094,334.553375 446.234314,334.031830
	C450.492706,338.510345 454.751068,342.988861 459.246857,347.728210
z"/>
<path fill="#FEA53A" opacity="1.000000" stroke="none"
	d="
M213.343048,359.468811
	C212.488785,359.545166 211.386444,359.575592 210.870636,359.040558
	C204.553024,352.487305 198.272934,345.895721 192.113297,339.194427
	C191.038284,338.024902 190.564102,336.303101 189.812424,334.836365
	C190.240540,334.528473 190.668671,334.220581 191.096786,333.912689
	C196.026917,339.145813 201.049683,344.295807 205.850967,349.644562
	C208.545670,352.646606 210.874069,355.977417 213.343048,359.468811
z"/>
<path fill="#9846F6" opacity="1.000000" stroke="none"
	d="
M374.088013,376.775696
	C375.432648,376.941528 376.871948,376.883270 377.529938,377.571777
	C384.721313,385.096191 391.790588,392.737335 399.178223,400.652222
	C394.935883,400.802704 378.630646,385.114685 374.088013,376.775696
z"/>
<path fill="#FEA53A" opacity="1.000000" stroke="none"
	d="
M422.295624,272.707703
	C418.399200,267.624969 412.384186,264.525269 411.365417,257.739166
	C419.379364,265.932373 428.323029,273.280609 434.129730,283.331757
	C430.264130,279.878204 426.398499,276.424652 422.295624,272.707703
z"/>
<path fill="#FEA53A" opacity="1.000000" stroke="none"
	d="
M306.137726,338.851776
	C312.296570,346.109711 319.964050,351.714508 324.028442,360.192139
	C315.601166,355.147614 301.252258,338.410370 302.192230,333.557068
	C303.424652,335.237854 304.657074,336.918640 306.137726,338.851776
z"/>
<path fill="#9846F6" opacity="1.000000" stroke="none"
	d="
M279.361053,394.656433
	C273.881561,388.818176 268.645691,383.238312 263.409821,377.658417
	C263.501282,377.334656 263.592773,377.010895 263.684235,376.687134
	C264.993225,377.086884 266.712555,377.088623 267.546753,377.948822
	C274.701752,385.326965 281.696655,392.860321 289.164307,400.799042
	C283.595154,401.628998 282.371460,397.085876 279.361053,394.656433
z"/>
<path fill="#FDFEFF" opacity="1.000000" stroke="none"
	d="
M114.999969,329.235168
	C106.001793,329.235321 97.501305,329.137299 89.007820,329.336823
	C87.673607,329.368164 86.371101,330.749023 85.053940,331.505920
	C86.371216,332.084686 87.686180,333.161865 89.006088,333.167938
	C111.500793,333.271667 133.996124,333.239563 156.491302,333.250885
	C157.791000,333.251526 159.090652,333.367371 160.686218,333.443756
	C160.686218,341.277527 160.686218,348.841034 160.686218,356.703491
	C128.001160,356.703491 95.415802,356.703491 62.447258,356.703491
	C62.447258,340.020691 62.447258,323.304352 62.447258,305.860382
	C64.208244,305.860382 65.967667,305.860413 67.727081,305.860413
	C89.222481,305.860413 110.717873,305.860443 132.213272,305.860168
	C133.213058,305.860168 134.300629,306.105103 135.189575,305.790405
	C136.216919,305.426697 137.069244,304.568665 137.997574,303.925262
	C136.963028,303.236603 135.958481,302.013916 134.888626,301.953796
	C130.735901,301.720520 126.559219,301.948639 122.398392,301.804565
	C120.996300,301.756012 119.174858,301.552002 118.293427,300.670654
	C111.163963,293.541626 104.212784,286.234314 96.322044,278.064941
	C104.355431,278.064941 111.105309,278.064941 117.855179,278.064941
	C129.186081,278.064972 140.517075,278.039612 151.847870,278.074707
	C158.553818,278.095459 160.971878,280.445251 160.988022,286.979492
	C161.022125,300.790924 160.998398,314.602509 160.998398,329.235016
	C145.641571,329.235016 130.570770,329.235016 114.999969,329.235168
z"/>
<path fill="#FEFFFF" opacity="1.000000" stroke="none"
	d="
M137.954926,421.703857
	C138.032913,411.121613 138.032913,401.010376 138.032913,390.352203
	C132.576874,390.352203 127.616722,390.471588 122.667953,390.286469
	C120.971367,390.222992 118.767792,389.920013 117.708931,388.835236
	C110.766754,381.722931 104.074699,374.366486 96.735535,366.482361
	C118.450264,366.482361 139.307312,366.482361 160.780151,366.482361
	C160.849472,367.963226 160.986664,369.545349 160.987961,371.127594
	C161.003036,389.612305 161.122818,408.098785 160.857849,426.579681
	C160.819702,429.240784 159.334503,432.165192 157.781860,434.471466
	C150.939575,444.634735 141.778809,448.294647 129.097015,447.472168
	C109.528923,446.202972 89.817879,447.151459 70.167496,447.129578
	C64.003502,447.122711 62.101578,445.267242 62.080471,439.122711
	C62.034138,425.634064 62.059608,412.145081 62.079071,398.656281
	C62.080696,397.532837 62.258396,396.409698 62.375404,395.039093
	C69.880417,395.039093 77.125824,395.039093 84.881943,395.039093
	C84.881943,404.247650 84.881943,413.325531 84.881943,423.002289
	C90.478073,423.002289 95.581474,423.002289 100.684875,423.002289
	C111.509247,423.002258 122.333832,423.035492 133.157745,422.965363
	C134.732452,422.955170 136.303955,422.450684 137.954926,421.703857
z"/>
<path fill="#F2FBFC" opacity="1.000000" stroke="none"
	d="
M81.871506,371.087860
	C80.513512,369.612732 79.400154,368.400726 77.224976,366.032867
	C85.077888,366.787842 91.902534,363.763000 97.434586,371.046997
	C102.519295,377.741913 108.834976,383.501953 115.311546,390.425598
	C107.215065,390.580414 99.989632,392.675385 94.570076,384.927216
	C91.080811,379.938721 86.311661,375.845490 81.871506,371.087860
z"/>
<path fill="#F5FCFD" opacity="1.000000" stroke="none"
	d="
M95.619934,281.191040
	C102.065987,287.934479 108.245674,294.418823 114.996254,301.502228
	C106.640594,302.244232 99.550659,303.088837 93.920181,295.693451
	C89.325455,289.658478 83.480408,284.575500 78.362297,278.504852
	C84.097672,279.222839 90.303146,275.341766 95.619934,281.191040
z"/>
<path fill="#E7F8F9" opacity="1.000000" stroke="none"
	d="
M84.287140,385.712952
	C85.717644,387.234375 86.898170,388.505737 88.078697,389.777069
	C87.651939,390.198090 87.225182,390.619110 86.798424,391.040131
	C77.335503,384.694336 71.243874,374.829834 62.910564,367.305054
	C63.205128,366.828918 63.499695,366.352814 63.794262,365.876709
	C65.196419,366.720367 66.854065,367.315491 67.957520,368.449738
	C73.398033,374.042328 78.691696,379.777832 84.287140,385.712952
z"/>
<path fill="#E7F8F9" opacity="1.000000" stroke="none"
	d="
M72.226242,288.772827
	C68.934418,285.303406 65.883675,282.092834 62.434448,278.462921
	C66.555138,278.467285 80.429512,291.385590 87.626045,301.121216
	C84.752274,301.631622 84.763809,301.620514 79.824257,296.499023
	C77.398705,293.984100 74.921288,291.519226 72.226242,288.772827
z"/>
</svg>
